<?xml version="1.0" standalone="no"?>
<!DOCTYPE svg PUBLIC "-//W3C//DTD SVG 20010904//EN"
 "http://www.w3.org/TR/2001/REC-SVG-20010904/DTD/svg10.dtd">
<svg version="1.0" xmlns="http://www.w3.org/2000/svg"
 width="1024.000000pt" height="557.000000pt" viewBox="0 0 1024.000000 557.000000"
 preserveAspectRatio="xMidYMid meet">

<g transform="translate(0.000000,557.000000) scale(0.100000,-0.100000)"
fill="#000000" stroke="none">
<path d="M0 2785 l0 -2785 5120 0 5120 0 0 2785 0 2785 -5120 0 -5120 0 0
-2785z m5475 1992 c230 -53 444 -146 625 -274 56 -40 157 -129 248 -220 99
-99 162 -153 175 -154 28 -1 59 -13 58 -22 -3 -27 2 -36 27 -45 l27 -9 -32 -7
c-18 -4 -33 -12 -33 -17 0 -5 20 -50 45 -99 184 -366 234 -727 154 -1098 -26
-121 -79 -273 -131 -375 l-40 -80 -23 29 -23 29 23 45 c68 134 127 361 145
554 26 281 -45 638 -169 846 -70 116 -63 112 -111 60 -22 -24 -165 -205 -316
-403 l-275 -358 274 -367 c295 -396 408 -549 421 -570 7 -11 -36 -13 -250 -10
-243 3 -262 5 -300 25 -53 28 -82 61 -254 296 -80 108 -149 195 -155 194 -5
-2 -83 -97 -172 -212 -89 -114 -176 -223 -195 -242 -39 -41 -108 -63 -193 -63
-110 0 -183 41 -257 143 -24 34 -120 167 -213 295 l-168 233 -22 -21 c-39 -37
-79 -17 -73 37 4 34 40 44 68 18 15 -13 45 -16 201 -15 l184 2 41 -54 c22 -29
78 -105 125 -168 90 -123 96 -130 120 -130 15 0 84 58 84 71 0 4 59 83 131
175 72 93 153 199 180 236 42 58 53 67 81 68 20 0 42 9 59 25 15 14 33 25 40
25 47 0 74 -48 49 -86 -18 -28 -72 -34 -81 -9 -4 9 -19 15 -39 15 -30 0 -40
-8 -82 -62 -144 -189 -306 -388 -315 -388 -6 0 -8 -3 -5 -6 4 -4 -7 -24 -23
-44 -27 -34 -36 -38 -81 -42 l-51 -3 -46 65 c-85 120 -195 265 -210 277 -21
17 -232 18 -232 2 0 -6 37 -61 83 -123 46 -61 125 -172 177 -246 145 -210 157
-219 273 -222 119 -2 120 -1 339 288 236 310 218 301 324 156 264 -360 303
-409 337 -425 28 -14 67 -17 206 -17 113 0 171 4 171 11 0 5 -40 63 -88 127
-48 64 -189 252 -313 417 -124 165 -229 306 -233 313 -8 13 9 36 403 556 99
132 181 244 181 248 0 4 -78 8 -172 8 -153 0 -177 -2 -205 -19 -17 -11 -82
-85 -143 -165 -61 -80 -113 -146 -115 -146 -3 0 -10 12 -18 26 l-14 26 -74
-85 c-41 -47 -184 -213 -319 -368 -135 -156 -257 -296 -271 -312 l-25 -30
-182 204 -181 204 22 23 c12 13 39 38 60 54 37 30 38 30 59 12 11 -11 63 -68
116 -129 52 -60 98 -111 102 -113 7 -3 131 137 459 516 l124 143 52 -51 52
-51 50 63 c27 35 68 90 90 123 53 78 112 131 160 144 21 5 101 12 178 16 163
7 183 11 214 35 l24 17 -21 34 c-29 48 -193 205 -282 271 -201 150 -478 261
-740 298 -111 16 -363 17 -469 1 -247 -36 -464 -122 -700 -278 -69 -46 -131
-81 -137 -79 -7 3 -10 -3 -7 -12 2 -11 -25 -45 -79 -99 -76 -74 -87 -82 -133
-88 l-50 -7 36 38 c19 22 58 63 85 93 64 71 210 192 304 254 194 127 459 224
715 261 17 2 125 3 240 1 180 -3 226 -7 320 -28z m-42 -155 c233 -51 447 -150
632 -291 68 -52 168 -140 173 -153 8 -19 -36 8 -78 47 -170 161 -405 290 -633
349 -155 40 -243 50 -427 50 -140 -1 -195 -5 -277 -22 -283 -61 -519 -177
-716 -355 -87 -78 -117 -87 -37 -11 194 184 488 335 755 388 124 24 129 24
325 21 144 -2 207 -7 283 -23z m-1443 -560 c265 -10 231 15 484 -344 92 -131
171 -240 177 -243 26 -16 -12 -25 -110 -25 l-107 0 -24 33 c-14 17 -62 85
-107 151 -56 80 -93 124 -115 135 -43 21 -50 63 -15 86 13 8 32 13 41 9 23 -9
38 -41 31 -64 -4 -14 23 -58 102 -164 l108 -145 43 -1 43 0 -20 28 c-11 15
-84 116 -163 226 -102 141 -153 204 -178 217 -30 16 -58 19 -202 19 -93 0
-168 -3 -168 -7 0 -8 33 -55 279 -391 l154 -211 52 -6 c28 -4 100 -5 158 -3
69 2 106 -1 104 -7 -5 -16 -149 -24 -304 -18 -133 6 -143 5 -150 -13 -5 -12
-18 -19 -35 -19 -26 -1 -28 2 -28 37 0 34 3 38 25 38 14 0 34 -5 45 -12 27
-17 37 -2 19 27 -26 43 -427 578 -464 620 l-36 40 50 5 c27 3 53 9 58 13 4 5
19 6 33 2 14 -3 113 -9 220 -13z m1241 -13 c19 -7 49 -26 67 -43 35 -32 142
-179 142 -194 0 -5 -11 -19 -24 -31 l-24 -23 -71 96 c-39 52 -84 102 -100 111
-24 12 -67 15 -201 15 -93 0 -170 -3 -170 -7 0 -5 75 -109 165 -232 91 -124
165 -227 165 -231 0 -9 -49 -54 -53 -49 -2 2 -100 132 -217 289 -117 157 -217
291 -223 298 -13 16 493 18 544 1z m-153 -138 c7 -9 10 -26 7 -39 -4 -17 15
-50 85 -145 49 -67 88 -126 87 -131 -9 -28 -34 -6 -114 103 -53 73 -95 121
-105 121 -26 0 -58 36 -58 64 0 50 66 68 98 27z m1122 -2 c19 -34 8 -62 -33
-84 -27 -15 -76 -72 -183 -215 -236 -316 -276 -364 -286 -345 -7 12 40 81 198
293 176 233 208 283 209 312 1 48 11 60 50 60 24 0 38 -6 45 -21z m-2565 -122
c-90 -204 -138 -517 -116 -747 27 -263 100 -490 227 -701 19 -31 34 -61 34
-65 0 -5 -4 -2 -10 6 -5 8 -11 12 -14 9 -7 -6 33 -83 45 -87 16 -6 9 -18 -10
-18 -13 0 -18 6 -16 17 2 10 -4 24 -13 31 -12 10 -14 10 -8 1 4 -7 3 -13 -2
-13 -14 0 -106 144 -155 245 -108 219 -160 447 -160 705 0 224 35 403 121 618
l45 114 29 -29 29 -29 -26 -57z m430 93 c11 -12 16 -29 12 -46 -4 -23 19 -59
143 -228 103 -140 144 -202 134 -204 -24 -6 -48 21 -182 206 -69 94 -131 172
-137 172 -20 0 -65 40 -65 59 0 27 29 61 54 61 13 0 31 -9 41 -20z m1173 8 c7
-7 12 -25 12 -41 0 -19 16 -52 45 -92 37 -53 42 -65 30 -75 -11 -9 -22 0 -59
51 -25 35 -59 68 -75 75 -34 14 -47 45 -31 74 12 23 58 28 78 8z m772 -22 c19
-23 8 -59 -23 -74 -15 -7 -46 -39 -69 -70 -23 -31 -86 -114 -139 -183 -80
-102 -102 -125 -121 -123 -13 1 -43 3 -67 3 -37 1 -42 3 -31 16 8 9 30 15 59
15 45 1 47 3 92 63 26 34 86 113 133 176 61 80 85 119 81 132 -10 30 12 59 44
59 16 0 34 -7 41 -14z m518 -135 c149 -353 151 -757 5 -1123 -19 -49 -39 -88
-44 -88 -13 0 -11 17 5 48 25 49 76 217 98 323 16 80 21 141 21 264 0 225 -33
400 -110 579 -19 44 -37 87 -40 95 -4 9 -1 12 8 9 8 -2 33 -51 57 -107z
m-2791 22 c-3 -10 -19 -57 -36 -105 -41 -119 -71 -280 -78 -424 -15 -304 89
-657 267 -907 35 -48 111 -133 169 -190 212 -204 459 -334 761 -398 86 -19
138 -23 290 -23 219 -1 325 15 505 76 192 64 347 152 498 282 49 42 90 76 92
76 14 0 -16 -33 -79 -88 -356 -312 -847 -441 -1315 -346 -268 54 -547 200
-754 393 -87 82 -240 286 -299 398 -102 194 -148 380 -155 623 -7 237 25 431
99 602 19 45 47 69 35 31z m203 -408 c0 -20 -5 -25 -25 -25 -20 0 -25 5 -25
25 0 20 5 25 25 25 20 0 25 -5 25 -25z m1678 -27 c22 -29 23 -57 3 -77 -27
-27 -55 -27 -80 0 -10 11 -28 19 -39 17 -13 -2 -98 -102 -229 -269 -264 -336
-253 -323 -257 -318 -2 2 -43 57 -90 122 l-86 117 30 0 c17 0 30 -3 30 -7 0
-5 26 -37 58 -72 l58 -64 154 194 c85 107 181 224 213 262 55 63 60 67 101 67
30 0 48 6 61 20 20 23 57 26 73 8z m-1094 -43 c5 -13 -13 -15 -119 -15 -113 0
-146 6 -128 24 3 3 59 6 124 6 95 0 118 -3 123 -15z m-294 -50 c10 -12 48 -15
193 -17 133 -2 181 -6 185 -15 3 -10 -38 -13 -180 -13 -171 0 -185 -1 -201
-20 -17 -20 -52 -26 -74 -12 -21 13 -26 58 -8 76 20 20 68 21 85 1z m-460 -45
c0 -26 -3 -29 -30 -27 -26 2 -30 6 -30 30 0 23 4 27 30 27 27 0 30 -3 30 -30z
m182 5 c-4 -22 -9 -25 -48 -25 -40 0 -44 2 -44 25 0 23 3 25 49 25 46 0 48 -1
43 -25z m738 -80 c11 -14 -6 -15 -160 -13 -128 2 -174 6 -178 16 -3 9 34 12
161 12 135 0 167 -3 177 -15z m1193 -224 c223 -299 263 -349 288 -353 12 -2
23 -11 25 -21 2 -15 0 -16 -12 -6 -19 16 -44 4 -44 -21 0 -31 -18 -24 -22 9
-3 28 -53 96 -356 488 -53 69 -71 100 -67 114 4 11 11 16 17 13 6 -4 83 -104
171 -223z m-1803 164 c10 -12 65 -15 348 -17 257 -2 336 -6 340 -15 3 -10 -69
-13 -336 -13 -326 0 -340 -1 -357 -20 -22 -24 -42 -25 -67 -3 -21 18 -24 53
-6 71 17 17 63 15 78 -3z m1739 -280 c78 -108 139 -200 137 -204 -3 -5 12 -11
34 -15 31 -5 41 -11 46 -31 8 -31 -10 -55 -40 -55 -29 0 -46 18 -46 50 -1 17
-49 89 -148 220 l-148 195 -64 3 -65 3 -144 -186 c-78 -102 -147 -182 -152
-179 -6 3 -5 11 2 20 6 8 9 14 5 14 -4 0 55 81 129 180 l135 180 89 0 88 0
142 -195z m-1079 -6 c4 -31 16 -59 37 -86 18 -22 30 -43 26 -46 -10 -11 -39
11 -67 52 -15 22 -37 41 -48 43 -29 4 -42 30 -34 62 6 24 11 27 44 24 36 -3
37 -4 42 -49z m128 -206 c47 -65 65 -111 35 -95 -20 12 -113 144 -107 154 11
17 23 6 72 -59z m337 -33 c-3 -5 -12 -10 -18 -10 -7 0 -6 4 3 10 19 12 23 12
15 0z m-35 -30 c0 -5 -2 -10 -4 -10 -3 0 -8 5 -11 10 -3 6 -1 10 4 10 6 0 11
-4 11 -10z m1019 -41 c-8 -5 -21 -8 -29 -8 -8 0 -5 4 8 9 12 5 22 15 23 22 0
10 2 10 6 -1 3 -7 -1 -17 -8 -22z m-1043 -16 c9 -35 -7 -57 -45 -61 -25 -3
-33 1 -40 20 -9 24 -6 38 8 38 5 0 8 -8 7 -17 -1 -13 6 -18 24 -18 31 0 36 38
5 43 -38 7 -40 22 -2 22 31 0 38 -4 43 -27z m-1336 -194 c0 -5 -4 -9 -10 -9
-5 0 -10 7 -10 16 0 8 5 12 10 9 6 -3 10 -10 10 -16z m287 -292 c201 -154 456
-271 703 -324 124 -26 518 -26 640 0 287 63 530 181 754 368 49 41 93 73 98
71 5 -1 7 2 4 7 -4 5 -2 12 4 16 5 3 10 1 10 -5 0 -7 7 -9 17 -6 15 6 15 5 -1
-13 -13 -14 -14 -21 -5 -27 8 -5 10 -3 4 6 -6 9 -4 11 5 5 17 -10 -94 -119
-208 -203 -215 -159 -497 -277 -759 -318 -142 -22 -370 -22 -488 -1 -263 47
-558 171 -755 317 -102 75 -293 258 -284 272 3 4 0 8 -7 8 -7 0 -9 3 -6 6 4 4
13 1 22 -6 13 -11 14 -10 9 4 -3 9 -10 16 -15 16 -5 0 -9 5 -9 12 0 6 9 3 20
-7 23 -20 26 -14 8 18 -6 12 31 -21 83 -73 52 -53 122 -117 156 -143z m-287
208 c7 -9 8 -15 2 -15 -5 0 -12 7 -16 15 -3 8 -4 15 -2 15 2 0 9 -7 16 -15z
m133 -1011 c71 -119 132 -213 135 -209 4 4 63 100 132 213 l126 207 48 3 c37
2 47 0 43 -10 -3 -7 -61 -104 -129 -215 -67 -111 -135 -223 -151 -248 -27 -45
-28 -46 -74 -43 l-46 3 -154 253 c-84 139 -153 255 -153 258 0 2 21 4 48 4
l47 0 128 -216z m1237 136 l0 -60 141 0 140 0 -3 -36 -3 -36 -137 1 -138 2 0
-94 c0 -138 2 -140 158 -138 l122 2 0 -41 0 -40 -126 0 c-202 0 -226 20 -234
195 l-5 110 -37 3 c-36 3 -38 5 -38 37 0 32 2 34 38 37 l37 3 3 58 3 57 39 0
40 0 0 -60z m-295 -70 c16 -8 40 -30 52 -49 20 -30 23 -46 23 -130 0 -170 -29
-191 -262 -191 -134 0 -157 2 -185 20 -57 34 -68 63 -67 170 0 131 22 169 109
191 52 14 296 5 330 -11z m1095 -5 c44 -26 70 -76 70 -137 0 -74 -11 -78 -222
-78 l-178 0 0 40 0 40 155 0 155 0 0 24 c0 45 -32 56 -166 56 -108 0 -124 -2
-148 -21 -24 -19 -26 -26 -26 -94 0 -105 14 -119 111 -116 41 1 125 -1 187 -5
l112 -6 0 -34 0 -34 -185 0 c-201 0 -230 6 -275 54 -22 25 -25 38 -28 120 -4
105 10 154 52 182 43 27 83 33 221 31 110 -2 135 -5 165 -22z m310 -40 c25
-26 58 -56 73 -67 l28 -20 78 76 79 76 58 0 59 -1 -105 -99 -105 -99 45 -43
c25 -24 72 -67 104 -96 l60 -52 -59 0 c-58 0 -58 0 -136 70 -42 39 -81 70 -85
70 -4 0 -42 -31 -85 -70 -76 -68 -78 -70 -131 -70 l-53 1 102 97 103 97 -99
90 -99 90 46 5 c58 7 66 3 122 -55z"/>
<path d="M5597 3134 c-16 -16 -7 -44 14 -44 15 0 20 5 17 22 -3 22 -19 33 -31
22z"/>
<path d="M4307 2916 c-7 -18 1 -26 25 -26 11 0 18 7 18 20 0 23 -35 28 -43 6z"/>
<path d="M4840 2321 c0 -5 7 -12 16 -15 14 -5 15 -4 4 9 -14 17 -20 19 -20 6z"/>
<path d="M6050 2260 c0 -5 5 -10 10 -10 6 0 10 5 10 10 0 6 -4 10 -10 10 -5 0
-10 -4 -10 -10z"/>
<path d="M6230 2250 c0 -5 12 -10 28 -10 21 0 24 2 12 10 -20 13 -40 13 -40 0z"/>
<path d="M4180 3817 c0 -19 10 -27 26 -20 21 8 17 33 -6 33 -11 0 -20 -6 -20
-13z"/>
<path d="M5015 3890 c-4 -7 -3 -16 3 -22 14 -14 45 -2 40 15 -6 16 -34 21 -43
7z"/>
<path d="M6135 3891 c-9 -16 3 -31 26 -31 14 0 19 6 17 17 -4 20 -33 29 -43
14z"/>
<path d="M4012 3857 c-15 -17 1 -42 23 -33 18 6 17 37 -1 43 -6 2 -16 -2 -22
-10z"/>
<path d="M5186 3861 c-7 -11 18 -33 27 -24 4 3 7 12 7 20 0 15 -26 18 -34 4z"/>
<path d="M5961 3846 c-9 -10 -8 -16 3 -25 10 -9 16 -8 25 3 9 10 8 16 -3 25
-10 9 -16 8 -25 -3z"/>
<path d="M5560 3281 c0 -27 19 -36 37 -18 18 18 9 37 -18 37 -12 0 -19 -7 -19
-19z"/>
<path d="M4164 3206 c-8 -21 3 -36 27 -36 15 0 20 6 17 22 -4 27 -35 37 -44
14z"/>
<path d="M4014 3025 c-4 -9 -2 -21 4 -27 16 -16 47 -5 47 17 0 26 -42 34 -51
10z"/>
<path d="M5969 2508 c12 -34 41 -36 41 -4 0 21 -5 26 -25 26 -21 0 -23 -3 -16
-22z"/>
<path d="M4674 2775 c-8 -19 12 -36 33 -28 19 7 12 37 -10 41 -9 2 -20 -4 -23
-13z"/>
<path d="M4560 1137 c-24 -12 -25 -18 -28 -105 l-3 -93 33 -14 c25 -11 65 -13
156 -11 157 5 162 8 162 117 0 72 -2 79 -26 98 -24 19 -40 21 -148 21 -77 0
-130 -5 -146 -13z"/>
</g>
</svg>
